<?xml version="1.0" encoding="UTF-8"?>
<svg id="Layer_1" data-name="Layer 1" xmlns="http://www.w3.org/2000/svg" viewBox="0 0 449.36 221.11">
  <rect x="231.77" y="170.04" width="5.17" height="3.42" style="fill: #f8951d; stroke-width: 0px;"/>
  <g>
    <path d="M152.04,213.22c54.05,0,98.43-41.46,103.07-94.32-.41-2.93-.63-5.92-.63-8.96v-.21h-39.62s0,.35,0,.35c-.19,34.53-28.25,62.48-62.82,62.48s-62.5-27.8-62.83-62.22v-.62s-40.67,0-40.67,0c0,.24.02.47.02.7.37,56.82,46.57,102.79,103.48,102.79h0Z" style="fill: #fff; fill-rule: evenodd; stroke-width: 0px;"/>
    <path d="M111.31,6.49c-14.85,0-28.97,3.14-41.74,8.77h83.48c-12.77-5.64-26.89-8.77-41.74-8.77h0ZM166.19,22.24h-8.79s-14.53,0-14.53,0h-14.54s-14.53,0-14.53,0h-14.53s-14.53,0-14.53,0h-14.53s-13.78,0-13.78,0c-4.63,2.9-9.02,6.16-13.12,9.75h135.99c-4.1-3.58-8.49-6.84-13.12-9.75h0ZM186.08,38.43H36.55c-3.19,3.34-6.16,6.91-8.89,10.65h13.64s14.53,0,14.53,0h14.52s14.53,0,14.53,0h10.94c4.96-1.26,10.15-1.93,15.51-1.93,5.35,0,10.54.67,15.51,1.93h1.61s14.53,0,14.53,0h14.52s14.52,0,14.52,0h14.53s8.44,0,8.44,0c-2.73-3.74-5.7-7.31-8.89-10.65h0ZM198.47,54.18h-58.27c6.01,3.12,11.46,7.19,16.14,12h48.74c-1.94-4.16-4.15-8.17-6.61-12h0ZM206.93,70.37h-46.86c3.12,3.82,5.79,8.02,7.94,12.52h3.99s14.53,0,14.53,0h14.52s10.16,0,10.16,0c-1.16-4.3-2.59-8.47-4.27-12.52h0ZM212.03,86.12h-11.03s-14.54,0-14.54,0h-14.53s-2.48,0-2.48,0c1.81,4.39,3.13,9.04,3.91,13.87h13.17s14.52,0,14.52,0h13.26c-.44-4.73-1.22-9.36-2.28-13.87h0ZM214.48,101.86h-13.49s-14.54,0-14.54,0h-12.84c.33,2.55.51,5.14.53,7.77v.35s40.66,0,40.66,0v-.27c-.02-2.64-.13-5.26-.32-7.86h0ZM82.42,54.18H24.17c-2.46,3.83-4.67,7.83-6.62,12h48.73c4.68-4.81,10.13-8.88,16.15-12h0ZM62.55,70.37H15.69c-1.68,4.05-3.11,8.23-4.27,12.52h.82s14.53,0,14.53,0h14.52s13.32,0,13.32,0c2.15-4.5,4.83-8.7,7.93-12.52h0ZM53.18,86.12h-12.02s-14.53,0-14.53,0h-14.53s-1.5,0-1.5,0c-1.06,4.52-1.83,9.14-2.28,13.87h3.93s14.53,0,14.53,0h14.52s7.98,0,7.98,0c.77-4.83,2.1-9.48,3.91-13.87h0ZM49.01,101.86h-7.85s-14.53,0-14.53,0h-14.53s-3.95,0-3.95,0c-.2,2.45-.3,4.93-.32,7.43,0,.24,0,.47,0,.7h40.66s.01-.61.01-.61c.02-2.54.21-5.05.52-7.51h0Z" style="fill: #fff; fill-rule: evenodd; stroke-width: 0px;"/>
    <path d="M146.83,101.86h-3.96s-14.54,0-14.54,0h-14.53s-7.83,0-7.83,0c-.2,2.45-.3,4.93-.32,7.43,0,.24-.01.47-.01.7h40.66s.01-.61.01-.61c.02-2.54.21-5.05.52-7.51h0ZM151,86.12h-8.13s-14.54,0-14.54,0h-14.53s-5.39,0-5.39,0c-1.06,4.52-1.83,9.14-2.29,13.87h7.79s14.52,0,14.52,0h14.53s4.13,0,4.13,0c.78-4.83,2.1-9.48,3.91-13.87h0ZM160.37,70.37h-46.85c-1.68,4.05-3.11,8.23-4.27,12.52h4.67s14.52,0,14.52,0h14.53s9.48,0,9.48,0c2.14-4.5,4.81-8.7,7.92-12.52h0ZM180.24,54.18h-58.27c-2.45,3.83-4.66,7.83-6.61,12h48.74c4.67-4.81,10.12-8.88,16.14-12h0ZM250.37,31.98c4.1-3.58,8.49-6.84,13.12-9.75h-18.01s-.89,0-.89,0h-14.53s-14.54,0-14.54,0h-14.53s-14.53,0-14.53,0h-14.53s-14.54,0-14.54,0h-3.14c-4.63,2.9-9.02,6.16-13.12,9.75h104.35s4.89,0,4.89,0h0ZM234.72,49.08c2.73-3.74,5.69-7.31,8.89-10.65h-13.56s-14.54,0-14.54,0h-14.53s-14.53,0-14.53,0h-14.53s-14.54,0-14.54,0h-14.53s-8.49,0-8.49,0c-3.2,3.34-6.17,6.9-8.9,10.65h2.95s14.53,0,14.53,0h14.52s14.53,0,14.53,0h14.52s7.1,0,7.1,0c4.96-1.26,10.16-1.93,15.51-1.93s10.55.67,15.51,1.93h5.45s4.63,0,4.63,0h0ZM209.13,6.49c-14.85,0-28.97,3.14-41.74,8.77h78.09s5.39,0,5.39,0c-12.77-5.64-26.89-8.77-41.74-8.77h0Z" style="fill: #e0e1e2; fill-rule: evenodd; stroke-width: 0px;"/>
    <path d="M441.77,6.14c0,53.29,0,106.37,0,159.76v47.71h-40.65v-62.86s0-40.77,0-40.77h20.75s-.01-.27-.01-.27c-.05-23.23-7.78-44.67-20.75-61.92V6.14s40.65,0,40.65,0h0Z" style="fill: #e0e1e2; fill-rule: evenodd; stroke-width: 0px;"/>
    <path d="M318.39,6.48c57.06,0,103.34,46.2,103.48,103.22v.27s-.03,0-.03,0h-20.71s0,40.77,0,40.77v21.28c-18.89,25.12-48.93,41.38-82.78,41.38-16.4,0-31.92-3.83-45.7-10.63,14.29-6.99,26.74-17.17,36.41-29.62,3.04.44,6.16.68,9.32.68,35.28,0,63.89-28.61,63.89-63.89,0-35.28-28.61-63.89-63.89-63.89-35.28,0-63.88,28.61-63.88,63.89,0,17.02,6.66,32.48,17.51,43.92-9.57,9.7-22.24,16.29-36.42,18.16-12.87-17.13-20.55-38.38-20.7-61.41-.01-.24-.02-.47-.02-.7h.05v-.64c.38-56.82,46.58-102.79,103.48-102.79h0Z" style="fill: #fff; fill-rule: evenodd; stroke-width: 0px;"/>
    <path d="M272,153.86c-11.4,11.54-27.22,18.7-44.71,18.7-34.49,0-62.5-27.8-62.82-62.22l-.02-.62h-40.65c0,.24.01.47.01.7.37,56.82,46.57,102.79,103.48,102.79,33.25,0,62.83-15.7,81.76-40.08-14.5-2.12-27.43-9.11-37.05-19.28Z" style="fill: #e0e1e2; fill-rule: evenodd; stroke-width: 0px;"/>
  </g>
</svg>